<?xml version="1.0" encoding="utf-8"?>
<!-- Generator: Adobe Illustrator 27.9.0, SVG Export Plug-In . SVG Version: 6.00 Build 0)  -->
<svg version="1.1" id="Layer_1" xmlns="http://www.w3.org/2000/svg" xmlns:xlink="http://www.w3.org/1999/xlink" x="0px" y="0px"
	 viewBox="0 0 1448 1448" style="enable-background:new 0 0 1448 1448;" xml:space="preserve">
<style type="text/css">
	.st0{fill:none;stroke:#767776;stroke-width:2;}
	.st1{fill:#010101;}
</style>
<g>
	<path vector-effect="non-scaling-stroke" class="st0" d="M540.8,276.2c-4.7,37.2,9.2,64.2,46.7,73.3
		c44.7,10.8,88.9,27.1,112.7,69.6c7,12.6,12.4,28.5,15.2,42.7c5.9,30,11.6,59.8,19.4,89.5c0.1,0.4,0.5,0.6,0.8,0.5
		c0.2,0,0.4-0.2,0.5-0.4c0.3-0.6,0.6-1.3,0.8-2.2c7-23.3,10.7-47.3,15.1-71.2c2.7-14.8,6.2-31.1,11.6-44.4
		c14.9-37.2,47.5-63.7,85.6-74.9c12.4-3.6,24.7-7.2,37.1-10.8c34.9-10.1,49.1-36.4,43.2-71.8c-0.1-0.4-0.2-0.4-0.5-0.1
		c-4.2,4.8-8.8,10.2-12.9,14.1c-29,28-69.2,41.5-109.1,35.7c-11.6-1.7-26.4-6-39.4-9.2c-21.5-5.3-43-5.4-64.6-0.5
		c-12.1,2.8-27.9,6.7-36.4,8.4c-49.6,9.6-94.1-10-125.3-48.5C541,275.6,540.8,275.7,540.8,276.2"/>
	<path vector-effect="non-scaling-stroke" class="st0" d="M767.7,547.7c57.7,16.8,122.4,4.4,152.5-52.4c16.9-32,14.4-68.7,0.9-101.5
		c-0.1-0.4-0.4-0.5-0.8-0.4l-33.1,9.6c-0.7,0.2-0.8,0.6-0.4,1.2c11.1,18.3,15.5,40,9.8,61c-11.4,41.5-53.9,63-94.7,50.6
		c-6.1-1.9-12.5-5.2-18.6-8.1c-0.3-0.2-0.7,0-0.8,0.3c0,0,0,0,0,0.1l-15,39.4C767.3,547.4,767.4,547.6,767.7,547.7
		C767.7,547.7,767.7,547.7,767.7,547.7"/>
	<path vector-effect="non-scaling-stroke" class="st0" d="M574.2,524.6c35.6,31.6,83.2,36.9,127.6,23.3c0.4-0.1,0.6-0.5,0.5-0.9
		c0,0,0,0,0,0l-14-39.2c-0.2-0.5-0.7-0.7-1.2-0.6c-0.1,0-0.1,0.1-0.2,0.1c-14.6,9.1-30.3,13.1-47.1,11.8
		c-42.8-3.2-74.5-42.6-67.3-84.9c1.8-10.4,6-20.7,11.1-30.1c0.2-0.4,0.1-0.9-0.3-1.1c-0.1,0-0.1-0.1-0.2-0.1l-33.3-9.4
		c-0.4-0.1-0.8,0.1-0.9,0.5C529.8,439.6,536.3,490.9,574.2,524.6"/>
	<path vector-effect="non-scaling-stroke" class="st0" d="M621.7,416.3c-32.9,24.7-8.9,75.4,30.4,67.2c12.7-2.6,28.2-14.3,25.8-28.7
		c-1.4-8.1-9.6-17.6-15.5-23.5c-0.1-0.1-0.4-0.1-0.5,0c-0.1,0.1-0.1,0.3-0.1,0.4c4.8,10.4,5.1,22.1-5.1,29.5
		c-17.1,12.4-36.1-2.6-31.6-21.8c1.4-6.1,4.9-11.4,10.3-15.9c0.4-0.3,0.3-0.5-0.1-0.8l-12.7-6.6C622.2,416,621.9,416,621.7,416.3"/>
	<path vector-effect="non-scaling-stroke" class="st0" d="M836.5,424.6c8.7,7.3,13.4,20.2,8.1,30.6c-4.6,9-17,13-26.3,9
		c-12.5-5.4-15.1-19.9-9.5-31.8c0.1-0.3,0-0.6-0.3-0.8c-0.2-0.1-0.5-0.1-0.6,0.1c-9.2,8.3-18.5,20.3-12.9,33.5
		c9.2,21.8,38,24.2,55.5,10.9c18.9-14.3,18.2-41.3,1.4-57.1c-5.2-4.9-12-0.2-16.7,3.6c-0.2,0.2-0.3,0.4-0.1,0.7
		C835.5,423.8,836,424.2,836.5,424.6"/>
	<path vector-effect="non-scaling-stroke" class="st0" d="M485.6,445.8c-23.2,44.2-23.2,93.9,3.3,137c0.2,0.3,0.5,0.3,0.8,0.2
		c0.1,0,0.1-0.1,0.2-0.2c26.6-42.1,24.3-95.2-2.9-136.3c-0.3-0.4-0.5-0.7-0.8-0.9C486,445.6,485.8,445.6,485.6,445.8
		C485.7,445.8,485.7,445.8,485.6,445.8"/>
	<path vector-effect="non-scaling-stroke" class="st0" d="M358.8,447.9c6.2,55,36.8,115.4,93.2,134.4c0.3,0.1,0.7-0.1,0.8-0.4
		c0-0.1,0-0.1,0-0.2c-1-59.2-42.9-108.1-93.5-134.2C358.9,447.4,358.8,447.5,358.8,447.9"/>
	<path vector-effect="non-scaling-stroke" class="st0" d="M934.7,603.4c17.6,14.8,35.5,29.2,53.8,43.2c0.1,0.1,0.3,0.1,0.4-0.1
		c0.1-0.1,0.1-0.2,0-0.3c-17.4-37.2-35.8-75.1-61.4-107.5c-0.2-0.2-0.5-0.3-0.8-0.1c-0.1,0-0.1,0.1-0.1,0.2l-11,20.7
		c-0.7,1.3-0.8,2.8-0.2,4.1c5,12,10.2,23.9,15.7,35.7C931.7,600.5,932.9,601.8,934.7,603.4"/>
	<path vector-effect="non-scaling-stroke" class="st0" d="M620.2,592.9l-40.7-33.4c-0.1-0.1-0.4-0.1-0.5,0.1
		c-0.1,0.1-0.1,0.2-0.1,0.2c2,13.5,4.5,26.8,7.6,40.1c0.8,3.3,2.2,6,3.9,8.8c10.8,17.3,22,33.7,33.5,49.4c1.1,1.5,1.6,1.3,1.5-0.5
		l-4.7-63.5C620.8,593.6,620.6,593.2,620.2,592.9"/>
	<path vector-effect="non-scaling-stroke" class="st0" d="M835.3,590.8l30.5,11c0.3,0.1,0.6,0,0.7-0.3c6.6-12.3,11.6-25.2,14.9-38.8
		c0.1-0.4,0.1-0.6,0.1-0.8c0-0.3-0.2-0.5-0.5-0.5c-0.1,0-0.1,0-0.2,0c-13.9,7-28.6,11.3-44.1,13c-0.4,0.1-0.8,0.4-0.8,0.8l-1.3,14.4
		C834.6,590.2,834.8,590.6,835.3,590.8"/>
	<path vector-effect="non-scaling-stroke" class="st0" d="M816,575.3c-14,0.4-29.3-1.7-43-3.8c-0.3,0-0.5,0.2-0.6,0.4
		c0,0.1,0,0.2,0.1,0.3l25.5,41.6c0.2,0.3,0.6,0.4,0.9,0.2c0.1,0,0.1-0.1,0.2-0.1l16.8-20.4c0.3-0.3,0.4-0.7,0.4-1.1l0.4-16.7
		C816.6,575.5,816.4,575.3,816,575.3C816,575.3,816,575.3,816,575.3"/>
	<path vector-effect="non-scaling-stroke" class="st0" d="M295.1,572.7c16.5,52.6,56.1,96.3,112.5,105.8c0.5,0.1,1-0.3,1.1-0.8
		c0-0.1,0-0.2,0-0.3c-8.7-54.2-64.3-91.6-113.1-105.1c-0.2-0.1-0.4,0.1-0.4,0.2C295,572.6,295,572.6,295.1,572.7"/>
	<path vector-effect="non-scaling-stroke" class="st0" d="M631.5,576.9c12.7,11.8,26.2,22.7,40.4,32.5c0.3,0.2,0.6,0.1,0.8-0.1
		c0,0,0,0,0-0.1l17.7-35.5c0.3-0.5,0.1-0.8-0.5-0.9c-0.9-0.1-2-0.1-3.2,0.1c-19.1,2.5-38.4,2.5-57.9-0.2c-0.3,0-0.6,0.2-0.7,0.5
		c0,0.1,0,0.3,0.1,0.4C629,575,630.8,576.2,631.5,576.9"/>
	<path vector-effect="non-scaling-stroke" class="st0" d="M883,609.9l12.9,10.3c0.3,0.3,0.7,0.3,1,0l17.2-15.1c0.9-0.8,1.1-2,0.5-3
		l-13.6-25.2c-0.1-0.2-0.4-0.3-0.6-0.2c-0.1,0-0.1,0.1-0.2,0.2L882.4,607C881.9,608,882.1,609.2,883,609.9"/>
	<path vector-effect="non-scaling-stroke" class="st0" d="M706.4,582.9l-19.8,36.8c-0.3,0.5-0.4,1.1-0.2,1.7l9.8,48.3
		c0.1,0.3,0.3,0.5,0.6,0.4c0,0,0.1,0,0.1,0c9.9-4.2,19.2-9.2,28.1-14.8c1.5-1,2.2-2,2.1-3.1c-1.4-22.3-10.8-47.9-19.9-69.3
		c-0.1-0.2-0.3-0.3-0.5-0.2C706.5,582.8,706.4,582.8,706.4,582.9"/>
	<path vector-effect="non-scaling-stroke" class="st0" d="M760.7,590.8c-6.3,20.1-12,40.3-14.6,61c0,0.2,0.1,0.4,0.3,0.4
		c0.1,0,0.2,0,0.2,0l38.6-22.8c0.7-0.4,0.8-0.9,0.4-1.6l-23.8-37.1C761.2,590,760.9,590,760.7,590.8"/>
	<path vector-effect="non-scaling-stroke" class="st0" d="M546.5,719.2c0.1,0.1,0.3,0.1,0.4,0c0,0,0.1-0.1,0.1-0.1
		c20-42.2,11.5-90.6-17.1-126.3c-0.5-0.6-0.8-0.5-1.1,0.1C509.3,637.3,516.4,681.9,546.5,719.2"/>
	<path vector-effect="non-scaling-stroke" class="st0" d="M403.5,594.5c13,43.5,48.1,77.9,94.5,82.4c0.5,0,0.9,0,1.2,0
		c1-0.1,1.8-1,1.7-2c0-0.1,0-0.3-0.1-0.4C485.6,631.2,448,603.2,404,594C403.6,593.8,403.4,594,403.5,594.5"/>
	<path vector-effect="non-scaling-stroke" class="st0" d="M813.4,625.4c-0.2,0.2-0.1,0.5,0.1,0.7c0,0,0.1,0,0.1,0.1l32.4,14.9
		c0.2,0.1,0.5,0,0.6-0.2l14.3-21.2c0.2-0.2,0.1-0.5-0.1-0.7c0,0-0.1,0-0.1,0l-32-13c-0.2-0.1-0.4,0-0.6,0.2L813.4,625.4"/>
	<path vector-effect="non-scaling-stroke" class="st0" d="M668.6,628.5c-9.9-7.1-19.7-13.9-29.5-20.3c-0.6-0.4-0.9-0.2-0.9,0.5
		c2.2,24.2,4.4,47.5,6.5,70.1c0.5,4.9,1.5,8.6,4.7,12.7c8.9,11.7,18.1,23.2,27.5,34.5c0.1,0.1,0.3,0.1,0.4,0c0.1,0,0.1-0.1,0.1-0.2
		c0.6-13.4,1.2-26.9,1.8-40.5c0.7-17.6-3.7-36.2-8.2-54.1C670.5,629.8,669.7,629.3,668.6,628.5"/>
	<path vector-effect="non-scaling-stroke" class="st0" d="M910.4,653.9c0.1,0.5,0.4,0.8,0.9,0.9l33,5.1c0.6,0.1,1.1-0.3,1.2-0.9
		c0-0.1,0-0.2,0-0.3l-2.3-25.8c0-0.3-0.2-0.6-0.4-0.8L925,619.4c-0.4-0.3-0.9-0.3-1.3,0L908,632.5c-0.3,0.2-0.4,0.6-0.4,1
		L910.4,653.9"/>
	<path vector-effect="non-scaling-stroke" class="st0" d="M869.5,670.7l28.8,21.1c0.9,0.7,1.3,0.4,1.1-0.7c-2.6-18-5.1-35.3-7.5-52
		c-0.2-1.5-0.6-2.5-2-3.3c-4.7-2.8-9-5.9-13-9.4c-0.2-0.2-0.6-0.2-0.8,0.1c0,0,0,0-0.1,0.1l-13.5,21.1c-0.2,0.3-0.2,0.6-0.1,0.9
		l6.9,21.8C869.3,670.5,869.4,670.6,869.5,670.7"/>
	<path vector-effect="non-scaling-stroke" class="st0" d="M821.2,684.9c12,8.2,24.5,15.8,37.6,22.7c0.4,0.2,0.8,0.1,1-0.3
		c0.1-0.2,0.1-0.3,0.1-0.5c-2.9-15.8-7-31.3-12.2-46.6c-0.1-0.3-0.4-0.6-0.7-0.8L812.1,644c-0.4-0.2-0.8,0-0.9,0.4
		c-0.1,0.1-0.1,0.3,0,0.4c2.2,11.8,4.4,23.6,6.8,35.3C818.3,682,819.4,683.6,821.2,684.9"/>
	<path vector-effect="non-scaling-stroke" class="st0" d="M744.3,679.8l33.4,17.9c1,0.5,2.2,0.5,3.1-0.1l19.5-12.8
		c0.8-0.5,1.2-1.5,1-2.5l-8.5-37c-0.1-0.3-0.4-0.5-0.6-0.4c-0.1,0-0.1,0-0.2,0.1c-15.7,10.3-32.6,20.3-46.9,32.2
		c-0.8,0.6-1.1,1.4-1.1,2.3C744.1,679.6,744.1,679.7,744.3,679.8"/>
	<path vector-effect="non-scaling-stroke" class="st0" d="M987.6,671c-8.3-7.7-17-15.1-25.8-22.4c-0.2-0.2-0.5-0.1-0.7,0.1
		c-0.1,0.1-0.1,0.2-0.1,0.4l7,58.7c0,0.4,0.2,0.7,0.5,1c9,10.6,18.4,20.7,28.2,30.6c0.8,0.8,1.3,0.7,1.3-0.5c0-17.6,0-35,0-52.2
		C998,679.8,993.7,676.6,987.6,671"/>
	<path vector-effect="non-scaling-stroke" class="st0" d="M1129.1,668.7c-34.8,2.7-66.8,24.6-77.9,58.4c-0.2,0.5,0.1,1,0.6,1.1
		c0.1,0,0.2,0.1,0.3,0c37.1-1.9,64.7-25.4,77.4-59.1C1129.6,668.9,1129.5,668.7,1129.1,668.7"/>
	<path vector-effect="non-scaling-stroke" class="st0" d="M932.2,1139.1c-18.4-18.7-36.8-37.4-55.4-55.9c-2.3-2.3-5.6-4.3-9.8-5.9
		c-22.7-8.9-45.3-17.7-67.6-26.7c-0.6-0.3-1.2-0.8-1.5-1.4c-9.9-22-19.2-44.4-28.1-67c-0.9-2.2-1.5-3.7,0-5.9
		c13.4-20.3,26.8-40.6,40.2-60.9c0.3-0.5,0.3-1.1,0-1.6c-7.9-10.7-16.3-21-25.1-30.9c-0.1-0.1-0.3-0.2-0.5,0
		c-0.1,0.1-0.1,0.1-0.1,0.2l-3.7,35.4c0,0.3-0.2,0.7-0.4,0.9l-37.8,49c-0.8,1-1.6,1-2.5,0.1c-16-18.5-31.5-36.4-46.4-53.7
		c-0.9-1-1.8-2-2-3.5c-2.4-14.2-5.4-28.3-9-42.2c-0.5-1.8-0.3-5.6,0-7.4c4.3-22,9.7-43.7,16.1-65.2c0.4-1.2,0.1-2.7-0.7-3.6
		c-4.5-5.3-9-10.7-13.5-16c-0.4-0.5-0.7-0.4-0.8,0.2c-4.6,17.2-13.2,35-21,51c-0.1,0.3-0.4,0.4-0.7,0.3c-0.3-0.1-0.7-0.3-1-0.8
		c-18.8-27.7-36.9-56.5-52.1-86.3c-3-5.8-3.9-9.1-3.2-15.3c2.4-20.2,4-33.4,4.8-39.6c0-0.4-0.1-0.7-0.3-1L596.4,671
		c-0.2-0.2-0.6-0.2-0.8,0c-0.1,0.1-0.1,0.2-0.2,0.3c-3.6,19.1-7.3,38-11.2,56.8c-0.5,2.3-0.5,6.3,0.2,8.5
		c4.6,15.6,9.1,31.1,13.5,46.6c0.1,0.4-0.1,0.8-0.5,0.9c0,0-0.1,0-0.2,0c-11.1,0.8-22.2,1.2-33.5,1.4c-1.8,0-3.6-0.6-5.2-1.7
		c-31-21.7-60.4-43.8-88.4-67.2c-12.6-10.6-25.2-21.2-37.8-31.8c-0.3-0.2-0.7-0.2-0.9,0.1c0,0,0,0,0,0l-6.7,9.2
		c-0.3,0.4-0.3,1,0.1,1.4c40.2,39.3,82.6,76.4,125.8,112.4c4.4,3.6,8.7,5.1,14.8,5.5c16.6,1.3,32.9,4,49,8.2
		c4.2,1.1,7.6,3.3,10.1,6.6c8.3,11.1,16.8,22.1,25.4,33c0.6,0.7,0.9,1.6,0.8,2.6c-0.8,11.6-1.7,23.2-2.5,34.8
		c-0.4,4.9,0,8.8,2.4,12.7c33.5,56.5,66.9,113.3,100.2,170.4c0.3,0.4,0.1,1-0.3,1.3c0,0-0.1,0-0.1,0.1c-28.9,10.4-58,20.3-87.3,29.9
		c-4.5,1.5-9.1,2.6-13.7,3.4c-17.5,2.9-35,5.5-52.6,7.8c-0.5,0.1-0.8,0.5-0.9,0.9l-0.6,13.3c0,0.5,0.3,0.9,0.8,0.9c0,0,0.1,0,0.1,0
		c19.6-1.9,39.3-3.7,59.1-5.5c3.2-0.3,6.3-0.6,9.5-1.6c25.6-7.7,51.2-15.1,76.9-22.5c18.1-5.2,34.6,0.2,51.4,8.6
		c22.3,11.1,44.1,23,65.5,35.6c0.3,0.2,0.5,0.5,0.6,0.9c3.4,28.9,4.3,57.9,2.9,87c0,0.3,0.2,0.5,0.5,0.5c0.1,0,0.3,0,0.4-0.1
		c28.6-28.3,56-58.6,80.5-90.3c0.2-0.3,0.2-0.6,0-0.8C939.8,1147,936,1143,932.2,1139.1"/>
	<path vector-effect="non-scaling-stroke" class="st0" d="M916.6,705.5c0,0.1,0.1,0.3,0.2,0.3l8.4,7.8c0.2,0.1,0.4,0.2,0.6,0.1
		l24.6-10.7c0.2-0.1,0.4-0.3,0.3-0.6l-3.6-23.5c0-0.2-0.2-0.4-0.5-0.5l-33.2-6.1c-0.3-0.1-0.6,0.1-0.6,0.4c0,0,0,0.1,0,0.2
		L916.6,705.5"/>
	<path vector-effect="non-scaling-stroke" class="st0" d="M695.4,693.7c-1.3,16.2-1.1,32.4,0.7,48.6c0.3,3.1,1,5.2,1.9,6.5
		c7,9.4,16.9,21.3,29.9,35.5c0.3,0.3,0.5,0.3,0.5-0.2c0.1-1.2,0.1-2.7,0-4.5c-2.5-33.5-3.6-67.3-3.3-101.6c0-0.7-0.3-0.9-1-0.6
		L696,690.3c-0.3,0.1-0.5,0.4-0.5,0.8C695.5,692,695.5,692.9,695.4,693.7"/>
	<path vector-effect="non-scaling-stroke" class="st0" d="M262.5,715.7c37.7,20.1,80.1,26,120.5,11c10.4-3.8,19.4-9,27.6-15.9
		c0.3-0.3,0.4-0.8,0.1-1.1c-0.1-0.1-0.1-0.1-0.2-0.2c-46.1-26.5-102.3-19.4-147.5,4.8c-0.4,0.2-0.6,0.4-0.8,0.7
		C262.1,715.3,262.2,715.5,262.5,715.7"/>
	<path vector-effect="non-scaling-stroke" class="st0" d="M882.3,730.7c2.2,10.3,26.8,23.6,35.7,28.8c0.2,0.1,0.5,0,0.6-0.2
		c0-0.1,0.1-0.2,0.1-0.3c-0.9-9-1.8-18.2-2.6-27.3c-0.1-0.9-0.3-1.5-0.6-1.9c-10.8-11.4-22.5-21.7-35.2-31.1
		c-1.8-1.3-3.5-3.2-5.4-4.7c-0.2-0.1-0.4-0.1-0.5,0.1c-0.1,0.1-0.1,0.2-0.1,0.3C877,706.5,879.7,718.6,882.3,730.7"/>
	<path vector-effect="non-scaling-stroke" class="st0" d="M744.3,740.8l28.2,19.2c0.2,0.1,0.4,0.1,0.5-0.1c0,0,0-0.1,0.1-0.1
		c3.2-14.7,3.6-29.6,1.4-44.5c-0.1-0.3-0.2-0.6-0.5-0.8c-10.4-5.8-21-11-32-15.5c-0.4-0.2-0.6,0-0.6,0.4l1.9,39.2
		C743.2,739.6,743.6,740.4,744.3,740.8"/>
	<path vector-effect="non-scaling-stroke" class="st0" d="M792.6,729.1c8.9,3.1,17.8,6,26.8,9c2.8,0.9,4.1,0.7,6.4-1
		c6.9-5.2,13.7-10.5,20.3-15.9c0.2-0.2,0.3-0.5,0.1-0.7c0,0-0.1-0.1-0.1-0.1l-35.4-20.9c-0.4-0.2-0.9-0.2-1.2,0l-17.7,11
		c-0.3,0.2-0.5,0.6-0.4,0.9c0.8,5.7,1.2,11.5,1,17.2C792.2,728.8,792.4,729,792.6,729.1"/>
	<path vector-effect="non-scaling-stroke" class="st0" d="M932.7,731c0.4,21.1,2.8,43.1,9.5,63.3c0.1,0.4,0.6,0.7,1,0.5
		c0.1,0,0.1,0,0.2-0.1l19.1-12.1c0.4-0.3,0.6-0.7,0.6-1.2l-7.6-59.1c-0.1-0.5-0.5-0.8-1-0.8c-0.1,0-0.1,0-0.2,0.1l-21,8.6
		C932.8,730.3,932.7,730.6,932.7,731"/>
	<path vector-effect="non-scaling-stroke" class="st0" d="M843.2,772.6l30.1,10.4c0.7,0.2,1.5-0.1,1.7-0.9c0.1-0.2,0.1-0.4,0.1-0.5
		c-0.5-7.2-0.7-14.4-0.4-21.8c0.4-8.9-9.4-20.5-14.6-27c-0.3-0.3-0.6-0.4-0.9-0.1l-22.6,16.6c-0.3,0.2-0.4,0.5-0.3,0.9l6.4,21.8
		C842.8,772.3,842.9,772.5,843.2,772.6"/>
	<path vector-effect="non-scaling-stroke" class="st0" d="M979.1,776.9c0,0.1,0.1,0.2,0.1,0.2l13.3,9.8c0.2,0.1,0.4,0.1,0.5-0.1
		c0,0,0.1-0.1,0.1-0.2l3-22.4c0-0.1,0-0.2-0.1-0.3l-21.4-23.8c-0.1-0.1-0.3-0.2-0.5,0c-0.1,0.1-0.1,0.2-0.1,0.3L979.1,776.9"/>
	<path vector-effect="non-scaling-stroke" class="st0" d="M1043,790.3c38.3,3.3,70.3-12.1,89.9-44.9c0.2-0.3,0.1-0.4-0.2-0.5
		c-11.8-1.2-23.3-0.5-34.4,2.2c-22.2,5.4-45.7,20.6-55.9,42C1042.1,789.9,1042.3,790.3,1043,790.3"/>
	<path vector-effect="non-scaling-stroke" class="st0" d="M820.6,757l-27.6-9.3c-0.4-0.1-0.8,0.1-0.9,0.4c0,0,0,0,0,0
		c-1.8,6-5.3,18.2-3.6,24c3.3,11.3,6.8,22.5,10.5,33.7c0.1,0.4,0.5,0.6,0.9,0.5c0.1,0,0.2-0.1,0.3-0.2l26.2-24.9
		c0.4-0.4,0.6-1,0.5-1.6l-5.9-22.3C821,757.2,820.8,757.1,820.6,757"/>
	<path vector-effect="non-scaling-stroke" class="st0" d="M345.8,795.5c45.1,12.2,91.6,4,124-31.4c0.2-0.2,0.2-0.6,0-0.8
		c-0.1-0.1-0.1-0.1-0.2-0.1c-44-13.7-91.1,0.5-123.9,31.6c-0.2,0.2-0.2,0.4,0,0.6C345.7,795.5,345.8,795.5,345.8,795.5"/>
	<path vector-effect="non-scaling-stroke" class="st0" d="M769.6,779c-8.8-7.1-17.4-13-25.9-17.9c-0.3-0.2-0.5-0.1-0.4,0.3
		c1.6,14.3,3.8,28.6,6.3,42.7c0.2,1.3,1.5,3.2,2.3,4.3c12.9,15.5,26.2,30.5,39.7,45.2c0.2,0.2,0.4,0.2,0.6,0
		c0.1-0.1,0.2-0.2,0.1-0.4c-4.1-22.2-10.6-43.6-16.8-65.2C774.2,783.6,772.9,781.7,769.6,779"/>
	<path vector-effect="non-scaling-stroke" class="st0" d="M919.9,781.2l-29.3-18.5c-0.2-0.1-0.4-0.1-0.5,0.1c0,0.1-0.1,0.1-0.1,0.2
		c0.7,11.1,1.3,22.3,1.9,33.6c0.1,2.8,0.8,5.1,2.1,7.2c4.8,7.6,9.5,15.1,14.2,22.5c0.2,0.3,0.5,0.3,0.7,0.2c0.1,0,0.1-0.1,0.1-0.1
		l17-23.3c0.6-0.9,0.8-2,0.5-3.1l-6.3-18.4C920.2,781.4,920.1,781.3,919.9,781.2"/>
	<path vector-effect="non-scaling-stroke" class="st0" d="M817.4,815.8l31.7,14c1.2,0.5,2.6,0.2,3.5-0.8l21.8-24.9
		c0.4-0.4,0.3-1.1-0.1-1.4c-0.1-0.1-0.2-0.1-0.3-0.2l-30.8-11.9c-0.8-0.3-1.6-0.1-2.2,0.4l-23.9,23c-0.4,0.4-0.4,1.1,0,1.5
		C817.1,815.7,817.2,815.8,817.4,815.8"/>
	<path vector-effect="non-scaling-stroke" class="st0" d="M958.2,829.7c0,0.1,0.2,0.3,0.3,0.3l26.6,11.1c0.3,0.1,0.6,0,0.7-0.3
		c0,0,0-0.1,0-0.1l4.4-32c0-0.2-0.1-0.4-0.2-0.5L973.5,796c-0.2-0.1-0.4-0.1-0.6,0l-20.4,14.1c-0.2,0.1-0.3,0.4-0.2,0.6L958.2,829.7
		"/>
	<path vector-effect="non-scaling-stroke" class="st0" d="M1149.2,798.9c-52.2,9.5-96.2,43.3-113.2,93.9c-0.3,0.8,0.2,1.6,0.9,1.9
		c0.2,0.1,0.5,0.1,0.7,0.1c52.1-7.3,93.5-47.3,112.5-94.7C1150.5,799.1,1150.2,798.7,1149.2,798.9"/>
	<path vector-effect="non-scaling-stroke" class="st0" d="M500,808.9c-44.8,16.5-71.1,58.5-75.8,104.5c0,0.2,0.1,0.4,0.4,0.4
		c0.1,0,0.1,0,0.2,0c42.8-16.8,76.6-56.6,76.5-104C501.3,808.8,500.9,808.6,500,808.9"/>
	<path vector-effect="non-scaling-stroke" class="st0" d="M423,815.9c-53.5,24.4-81.6,82.4-84.2,137.9c0,0.1,0.1,0.2,0.1,0.2
		c0,0,0.1,0,0.1,0c50-28.6,85.1-78.5,84.7-137.5c0-0.3-0.2-0.5-0.5-0.5C423.2,815.8,423.1,815.8,423,815.9"/>
	<path vector-effect="non-scaling-stroke" class="st0" d="M935.3,819.1c-5.5,7.6-11.1,14.8-16.5,21.5c-1.8,2.3-2.9,4.1-3.1,5.5
		c-1.1,7.9-2.3,15.7-3.4,23.4c0,0.2,0.1,0.4,0.3,0.4c0.1,0,0.1,0,0.2,0c6.5-3.3,13-6.6,19.3-9.8c2.7-1.4,3.3-2.4,4.1-5.2
		c2.1-6.6,4.1-13.3,6-20c0.1-0.3,0.1-0.7-0.1-1l-6.5-14.7c0-0.1-0.2-0.2-0.3-0.1C935.4,819,935.3,819,935.3,819.1"/>
	<path vector-effect="non-scaling-stroke" class="st0" d="M882.7,820.3l-20.2,22.3c-0.3,0.3-0.4,0.6-0.3,1c0.5,5.7,2.2,20.2,6,24
		c8.4,8.4,16.6,17,24.6,25.9c0.3,0.3,0.4,0.3,0.5-0.1c3.1-15.4,4.2-31.4,5.8-47c0.2-2-0.3-3.9-1.6-5.8c-4.6-6.8-9.3-13.5-13.9-20.2
		c-0.2-0.3-0.6-0.4-0.9-0.2C882.8,820.2,882.7,820.3,882.7,820.3"/>
	<path vector-effect="non-scaling-stroke" class="st0" d="M843,845.7l-38.2-16.5c-0.3-0.1-0.4,0-0.3,0.3c3,11.1,6.1,22.2,9.3,33.2
		c2.9,10.1,10.8,19.1,17.9,26.4c0.4,0.4,1,0.4,1.4,0c0,0,0.1-0.1,0.1-0.1l15.4-22.3c0.2-0.3,0.3-0.6,0.2-1l-4.2-18.1
		C844.3,846.7,843.7,846,843,845.7"/>
	<path vector-effect="non-scaling-stroke" class="st0" d="M961.7,882.7c2.9,5.1,7.4,8.7,12,12.6c0.4,0.3,0.6,0.2,0.7-0.2l7.8-32.6
		c0.2-0.8-0.2-1.7-0.9-2.1c-7.6-4.7-15.6-8.7-23.9-12c-0.5-0.2-1,0-1.2,0.5c0,0,0,0,0,0c-1.4,3.7-2.9,7.4-4.3,11.3
		c-0.2,0.5-0.2,1.1,0.1,1.7C954.8,869.5,958,876.4,961.7,882.7"/>
	<path vector-effect="non-scaling-stroke" class="st0" d="M908.5,905l17.3,16.8c0.4,0.4,1.1,0.4,1.5,0c0,0,0,0,0,0L949,898
		c0.5-0.5,0.6-1.3,0.3-1.9l-9.5-20.5c-0.2-0.3-0.6-0.5-0.9-0.3c0,0,0,0-0.1,0c-6.7,3.8-13.4,7.7-20.2,11.7
		c-6.7,3.9-9.9,9.6-10.4,17.2C908.2,904.5,908.3,904.8,908.5,905"/>
	<path vector-effect="non-scaling-stroke" class="st0" d="M887.8,913c-8.5-10.1-18.3-21.1-28.5-29.5c-0.7-0.6-1.4-0.5-1.9,0.3
		c-3.5,5.8-7,11.7-10.5,17.7c-1,1.8-0.8,3,0.4,4.6c11.1,15,22.6,29.7,34.4,44.1c0.1,0.2,0.4,0.2,0.6,0.1c0.1-0.1,0.1-0.1,0.1-0.2
		c2.5-11.4,4.9-22.8,7.2-34.2C889.8,914.5,888.4,913.7,887.8,913"/>
	<path vector-effect="non-scaling-stroke" class="st0" d="M502.8,885.9c22.3,36.3,61.3,55.2,103.5,49.5c0.9-0.1,1.1-0.6,0.6-1.3
		c-23.2-35.1-63.3-49.2-103.8-48.6c-0.2,0-0.3,0.1-0.3,0.3C502.8,885.8,502.8,885.8,502.8,885.9"/>
	<path vector-effect="non-scaling-stroke" class="st0" d="M1028.8,948.5c51.1,4,92.9-12.6,125.2-50c1.3-1.4,2.3-3,3.3-4.6
		c0.2-0.3,0.1-0.5-0.2-0.5c-44.8-5-89.5,8.8-120.3,41.6c-3.6,3.8-6.5,7.8-8.7,12c-0.3,0.5-0.1,1.1,0.4,1.3
		C1028.5,948.5,1028.6,948.5,1028.8,948.5"/>
	<path vector-effect="non-scaling-stroke" class="st0" d="M962.6,909.6c-0.2-0.3-0.7-0.3-1-0.1c0,0,0,0-0.1,0.1l-22.7,24.4
		c-0.3,0.3-0.4,0.7-0.2,1.1c4.4,10,9,20.1,13.8,30.1c0.2,0.3,0.3,0.5,0.4,0.5c0.6-0.1,1.1-0.5,1.2-1.1l14.7-47.1
		c0.1-0.3,0-0.7-0.2-1L962.6,909.6"/>
	<path vector-effect="non-scaling-stroke" class="st0" d="M925.3,946.8c-3.6-7.8-13.4-14.8-20.3-20.1c-0.3-0.2-0.7-0.2-0.9,0.1
		c-0.1,0.1-0.1,0.1-0.1,0.2c-2.7,11.7-5.2,23.4-7.6,35.3c-0.3,1.7-0.2,3.2,0.3,4.5c9.1,23.5,19.4,46.4,30.8,68.7
		c0,0.1,0.1,0.1,0.2,0.1c0,0,0.1-0.1,0.1-0.1l15.8-47.4c0.3-0.8,0.2-1.7-0.1-2.4C937.5,972.9,931.5,959.9,925.3,946.8"/>
	<path vector-effect="non-scaling-stroke" class="st0" d="M512.8,961.1c31.6,26.8,71,35.5,109.7,18.5c0.3-0.1,0.4-0.4,0.3-0.7
		c0-0.1-0.1-0.1-0.1-0.2c-30.8-25.8-71.6-32.6-109.5-19.2C512,959.8,511.9,960.3,512.8,961.1"/>
	<path vector-effect="non-scaling-stroke" class="st0" d="M974,1042.3c56.4,10.9,111.7-3.9,152.5-44.3c0.2-0.2,0.2-0.6,0-0.8
		c-0.1-0.1-0.2-0.1-0.3-0.2c-53.5-10.4-115.2,2.1-152.5,44.4c-0.2,0.2-0.2,0.6,0,0.8C973.8,1042.2,973.9,1042.3,974,1042.3"/>
	<path vector-effect="non-scaling-stroke" class="st0" d="M601.3,1050.9c13.1,2.7,26.2,2.8,39.2,0.4c21.6-4,43.6-17.5,52.7-38.1
		c0.3-0.6,0-1.2-0.6-1.5c-0.1,0-0.2-0.1-0.3-0.1c-36.3-4.5-68.7,10.6-91.3,38.5c-0.2,0.2-0.1,0.6,0.1,0.7
		C601.2,1050.9,601.2,1050.9,601.3,1050.9"/>
</g>
<g>
	<path class="st1" d="M587.5,349.5c-37.5-9.1-51.5-36.1-46.7-73.3c0.1-0.5,0.3-0.6,0.6-0.2c31.2,38.6,75.6,58.1,125.3,48.5
		c8.5-1.6,24.3-5.6,36.4-8.4c21.6-5,43.1-4.8,64.6,0.5c13,3.2,27.8,7.5,39.4,9.2c39.9,5.8,80.1-7.7,109.1-35.7
		c4.1-4,8.7-9.4,12.9-14.1c0.3-0.3,0.4-0.3,0.5,0.1c5.9,35.4-8.3,61.7-43.2,71.8c-12.4,3.6-24.7,7.2-37.1,10.8
		c-38.1,11.2-70.7,37.7-85.6,74.9c-5.3,13.4-8.9,29.6-11.6,44.4C747.7,502,744,526,737,549.3c-0.3,0.9-0.5,1.6-0.8,2.2
		c-0.2,0.3-0.6,0.5-0.9,0.3c-0.2-0.1-0.3-0.3-0.4-0.5c-7.8-29.6-13.5-59.5-19.4-89.5c-2.8-14.2-8.2-30.1-15.2-42.7
		C676.4,376.6,632.2,360.4,587.5,349.5z"/>
	<path class="st1" d="M767.7,547.7c-0.2-0.1-0.4-0.3-0.3-0.4c0,0,0,0,0,0l15-39.4c0.1-0.3,0.5-0.5,0.8-0.4c0,0,0,0,0.1,0
		c6,3,12.4,6.3,18.6,8.1c40.8,12.4,83.3-9.2,94.7-50.6c5.8-21,1.3-42.7-9.8-61c-0.4-0.6-0.2-1,0.4-1.2l33.1-9.6
		c0.4-0.1,0.6,0,0.8,0.4c13.5,32.8,16,69.5-0.9,101.5C890.1,552.1,825.4,564.5,767.7,547.7z"/>
	<path class="st1" d="M574.2,524.6c-37.9-33.7-44.4-85-25.1-130.6c0.2-0.4,0.6-0.6,0.9-0.5l33.3,9.4c0.4,0.1,0.7,0.5,0.5,1
		c0,0.1,0,0.1-0.1,0.2c-5.1,9.4-9.3,19.8-11.1,30.1c-7.2,42.4,24.5,81.7,67.3,84.9c16.8,1.2,32.5-2.7,47.1-11.8
		c0.4-0.3,1-0.1,1.3,0.3c0,0.1,0.1,0.1,0.1,0.2l14,39.2c0.1,0.4-0.1,0.8-0.5,1c0,0,0,0,0,0C657.3,561.5,609.8,556.2,574.2,524.6z"/>
	<path class="st1" d="M652.1,483.4c-39.3,8.2-63.3-42.5-30.4-67.2c0.3-0.2,0.6-0.2,0.9-0.1l12.7,6.6c0.4,0.2,0.4,0.5,0.1,0.8
		c-5.4,4.5-8.9,9.7-10.3,15.9c-4.5,19.3,14.5,34.2,31.6,21.8c10.1-7.3,9.9-19.1,5.1-29.5c-0.1-0.2,0-0.4,0.2-0.5
		c0.1-0.1,0.3,0,0.4,0.1c5.9,5.8,14.1,15.4,15.5,23.5C680.3,469.1,664.7,480.8,652.1,483.4z"/>
	<path class="st1" d="M836.5,424.6c-0.5-0.4-0.9-0.9-1.4-1.4c-0.2-0.2-0.2-0.5,0.1-0.7c4.7-3.8,11.5-8.5,16.7-3.6
		c16.8,15.9,17.5,42.8-1.4,57.1C833,489.4,804.2,487,795,465.2c-5.6-13.2,3.7-25.2,12.9-33.5c0.2-0.2,0.6-0.2,0.8,0
		c0.2,0.2,0.2,0.4,0.1,0.6c-5.7,11.8-3,26.3,9.5,31.8c9.3,4,21.7,0,26.3-9C849.8,444.8,845.2,432,836.5,424.6z"/>
	<path class="st1" d="M485.6,445.8c0.1-0.2,0.4-0.3,0.6-0.2c0,0,0,0,0,0c0.3,0.2,0.6,0.5,0.8,0.9c27.2,41.1,29.5,94.2,2.9,136.3
		c-0.2,0.3-0.5,0.3-0.8,0.2c-0.1,0-0.1-0.1-0.2-0.2C462.5,539.8,462.4,490.1,485.6,445.8z"/>
	<path class="st1" d="M452,582.4c-56.4-19-87-79.5-93.2-134.4c0-0.4,0.1-0.6,0.5-0.3c50.6,26,92.6,75,93.5,134.2
		c0,0.3-0.3,0.6-0.6,0.6C452.2,582.4,452.1,582.4,452,582.4z"/>
	<path class="st1" d="M934.7,603.4c-1.8-1.5-3-2.9-3.6-4.1c-5.5-11.8-10.7-23.7-15.7-35.7c-0.6-1.3-0.5-2.8,0.2-4.1l11-20.7
		c0.1-0.3,0.5-0.4,0.7-0.2c0.1,0,0.1,0.1,0.2,0.1c25.6,32.4,44,70.3,61.4,107.5c0.1,0.1,0,0.3-0.1,0.4c-0.1,0-0.2,0-0.3,0
		C970.2,632.6,952.3,618.2,934.7,603.4z"/>
	<path class="st1" d="M620.2,592.9c0.4,0.3,0.6,0.7,0.6,1.2l4.7,63.5c0.1,1.9-0.3,2-1.5,0.5c-11.5-15.6-22.7-32.1-33.5-49.4
		c-1.8-2.8-3.2-5.4-3.9-8.8c-3.1-13.3-5.6-26.7-7.6-40.1c0-0.2,0.1-0.3,0.3-0.4c0.1,0,0.2,0,0.2,0.1L620.2,592.9z"/>
	<path class="st1" d="M835.3,590.8c-0.4-0.2-0.7-0.6-0.7-1l1.3-14.4c0-0.4,0.4-0.8,0.8-0.8c15.5-1.7,30.2-6,44.1-13
		c0.3-0.1,0.6,0,0.7,0.3c0,0.1,0.1,0.1,0.1,0.2c0,0.1,0,0.4-0.1,0.8c-3.3,13.6-8.3,26.5-14.9,38.8c-0.1,0.3-0.5,0.4-0.7,0.3
		L835.3,590.8z"/>
	<path class="st1" d="M773,571.5c13.7,2.1,29,4.2,43,3.8c0.3,0,0.6,0.2,0.6,0.6c0,0,0,0,0,0l-0.4,16.7c0,0.4-0.1,0.8-0.4,1.1
		L799,614c-0.2,0.3-0.6,0.3-0.9,0.1c-0.1,0-0.1-0.1-0.2-0.2l-25.5-41.6c-0.1-0.2-0.1-0.6,0.2-0.7C772.8,571.5,772.9,571.5,773,571.5
		z"/>
	<path class="st1" d="M407.5,678.4c-56.3-9.5-96-53.1-112.5-105.8c-0.1-0.2,0-0.4,0.2-0.5c0.1,0,0.1,0,0.2,0
		c48.8,13.5,104.4,51,113.1,105.1c0.1,0.5-0.3,1-0.8,1.1C407.7,678.5,407.6,678.5,407.5,678.4z"/>
	<path class="st1" d="M631.5,576.9c-0.8-0.7-2.6-1.9-3.4-3.3c-0.2-0.3-0.1-0.7,0.2-0.8c0.1-0.1,0.2-0.1,0.4-0.1
		c19.5,2.7,38.9,2.7,57.9,0.2c1.2-0.2,2.3-0.2,3.2-0.1c0.6,0.1,0.8,0.4,0.5,0.9l-17.7,35.5c-0.1,0.3-0.5,0.4-0.8,0.3
		c0,0-0.1,0-0.1,0C657.7,599.6,644.3,588.8,631.5,576.9z"/>
	<path class="st1" d="M883,609.9c-0.9-0.7-1.1-1.9-0.5-2.8l17.8-30.2c0.1-0.2,0.4-0.3,0.6-0.2c0.1,0,0.1,0.1,0.2,0.2l13.6,25.2
		c0.6,1,0.3,2.3-0.5,3l-17.2,15.1c-0.3,0.3-0.6,0.3-1,0L883,609.9z"/>
	<path class="st1" d="M686.5,619.8l19.8-36.8c0.1-0.2,0.3-0.3,0.5-0.1c0.1,0,0.1,0.1,0.2,0.2c9.1,21.3,18.5,46.9,19.9,69.3
		c0.1,1.1-0.6,2.1-2.1,3.1c-8.8,5.7-18.2,10.6-28.1,14.8c-0.3,0.1-0.6,0-0.7-0.3c0,0,0-0.1,0-0.1l-9.8-48.3
		C686.2,620.9,686.2,620.3,686.5,619.8z"/>
	<path class="st1" d="M760.7,590.8c0.2-0.8,0.6-0.8,1-0.1l23.8,37.1c0.4,0.6,0.3,1.2-0.4,1.6l-38.6,22.8c-0.2,0.1-0.4,0-0.5-0.1
		c0-0.1-0.1-0.1,0-0.2C748.6,631.1,754.4,610.8,760.7,590.8z"/>
	<path class="st1" d="M546.5,719.2c-30.1-37.2-37.2-81.9-17.7-126.2c0.3-0.7,0.7-0.7,1.1-0.1c28.6,35.8,37,84.1,17.1,126.3
		c-0.1,0.2-0.3,0.2-0.4,0.1C546.6,719.2,546.6,719.2,546.5,719.2z"/>
	<path class="st1" d="M498,676.9c-46.3-4.6-81.4-38.9-94.5-82.4c-0.1-0.5,0-0.7,0.5-0.6c44,9.2,81.5,37.2,96.7,80.5
		c0.3,1-0.2,2-1.1,2.4c-0.1,0-0.3,0.1-0.4,0.1C498.9,677,498.5,677,498,676.9z"/>
	<path class="st1" d="M813.4,625.4l14.7-19.3c0.1-0.2,0.4-0.2,0.6-0.2l32,13c0.3,0.1,0.4,0.4,0.3,0.6c0,0,0,0.1,0,0.1l-14.3,21.2
		c-0.1,0.2-0.4,0.3-0.6,0.2l-32.4-14.9c-0.2-0.1-0.4-0.4-0.2-0.6C813.3,625.4,813.3,625.4,813.4,625.4z"/>
	<path class="st1" d="M668.6,628.5c1.2,0.8,2,1.3,2.3,2.8c4.5,17.8,8.9,36.4,8.2,54.1c-0.6,13.5-1.2,27-1.8,40.5
		c0,0.1-0.1,0.3-0.3,0.3c-0.1,0-0.1,0-0.2-0.1c-9.4-11.4-18.5-22.9-27.5-34.5c-3.1-4.1-4.2-7.8-4.7-12.7
		c-2.2-22.6-4.3-45.9-6.5-70.1c-0.1-0.8,0.2-0.9,0.9-0.5C648.9,614.6,658.7,621.4,668.6,628.5z"/>
	<path class="st1" d="M910.4,653.9l-2.8-20.5c0-0.4,0.1-0.7,0.4-1l15.7-13.1c0.4-0.3,0.9-0.3,1.3,0l17.8,12.8
		c0.3,0.2,0.4,0.5,0.4,0.8l2.3,25.8c0.1,0.6-0.4,1.1-1,1.2c-0.1,0-0.2,0-0.3,0l-33-5.1C910.9,654.8,910.5,654.4,910.4,653.9z"/>
	<path class="st1" d="M869.5,670.7c-0.1-0.1-0.3-0.3-0.3-0.4l-6.9-21.8c-0.1-0.3-0.1-0.6,0.1-0.9l13.5-21.1c0.2-0.3,0.5-0.4,0.8-0.2
		c0,0,0,0,0.1,0.1c4,3.5,8.3,6.7,13,9.4c1.4,0.8,1.8,1.8,2,3.3c2.4,16.7,4.9,34,7.5,52c0.2,1.1-0.2,1.3-1.1,0.7L869.5,670.7z"/>
	<path class="st1" d="M821.2,684.9c-1.8-1.3-2.9-2.8-3.3-4.8c-2.3-11.7-4.6-23.5-6.8-35.3c-0.1-0.4,0.2-0.7,0.6-0.8
		c0.1,0,0.3,0,0.4,0l34.9,15.4c0.3,0.1,0.6,0.4,0.7,0.8c5.2,15.2,9.2,30.8,12.2,46.6c0.1,0.4-0.2,0.8-0.6,0.9c-0.2,0-0.3,0-0.5-0.1
		C845.7,700.6,833.2,693.1,821.2,684.9z"/>
	<path class="st1" d="M744.3,679.8c-0.1-0.1-0.2-0.2-0.2-0.4c0-0.9,0.3-1.7,1.1-2.3c14.3-11.9,31.2-21.9,46.9-32.2
		c0.3-0.2,0.6-0.1,0.7,0.2c0,0.1,0.1,0.1,0.1,0.2l8.5,37c0.2,1-0.2,2-1,2.5l-19.5,12.8c-0.9,0.6-2.1,0.7-3.1,0.1L744.3,679.8z"/>
	<path class="st1" d="M987.6,671c6.1,5.6,10.4,8.7,10.4,15.6c0,17.2,0,34.6,0,52.2c0,1.2-0.4,1.4-1.3,0.5
		c-9.8-9.8-19.2-20-28.2-30.6c-0.2-0.3-0.4-0.6-0.5-1l-7-58.7c0-0.3,0.2-0.5,0.5-0.6c0.1,0,0.3,0,0.4,0.1
		C970.6,655.9,979.3,663.4,987.6,671z"/>
	<path class="st1" d="M1051.1,727.2c11.1-33.8,43.1-55.7,77.9-58.4c0.4,0,0.6,0.1,0.4,0.5c-12.8,33.7-40.3,57.2-77.4,59.1
		c-0.5,0-0.9-0.4-0.9-0.8C1051.1,727.4,1051.1,727.3,1051.1,727.2z"/>
	<path class="st1" d="M932.2,1139.1c3.8,3.9,7.6,7.9,11.3,11.9c0.2,0.3,0.3,0.5,0,0.8c-24.5,31.8-52,62-80.5,90.3
		c-0.2,0.2-0.5,0.2-0.7,0c-0.1-0.1-0.2-0.2-0.1-0.4c1.5-29.1,0.5-58.1-2.9-87c0-0.4-0.3-0.7-0.6-0.9c-21.4-12.7-43.2-24.5-65.5-35.6
		c-16.8-8.3-33.2-13.8-51.4-8.6c-25.7,7.3-51.3,14.8-76.9,22.5c-3.2,1-6.3,1.3-9.5,1.6c-19.8,1.8-39.5,3.6-59.1,5.5
		c-0.5,0.1-0.9-0.3-1-0.8c0,0,0-0.1,0-0.1l0.6-13.3c0-0.5,0.4-0.9,0.9-0.9c17.6-2.2,35.1-4.8,52.6-7.8c4.6-0.8,9.2-1.9,13.7-3.4
		c29.3-9.6,58.4-19.6,87.3-29.9c0.5-0.2,0.7-0.7,0.5-1.2c0-0.1,0-0.1-0.1-0.1c-33.3-57.1-66.7-113.9-100.2-170.4
		c-2.3-3.9-2.7-7.8-2.4-12.7c0.9-11.6,1.7-23.2,2.5-34.8c0.1-0.9-0.2-1.8-0.8-2.6c-8.6-10.9-17.1-21.9-25.4-33
		c-2.5-3.3-5.8-5.5-10.1-6.6c-16.1-4.2-32.5-6.9-49-8.2c-6.1-0.5-10.4-1.9-14.8-5.5c-43.2-36-85.6-73-125.8-112.4
		c-0.4-0.4-0.4-1-0.1-1.4l6.7-9.2c0.2-0.3,0.6-0.4,0.9-0.1c0,0,0,0,0,0c12.6,10.7,25.1,21.3,37.8,31.8c28,23.5,57.4,45.5,88.4,67.2
		c1.7,1.2,3.4,1.8,5.2,1.7c11.3-0.1,22.4-0.6,33.5-1.4c0.4,0,0.7-0.4,0.7-0.8c0-0.1,0-0.1,0-0.1c-4.4-15.5-8.9-31-13.5-46.6
		c-0.6-2.2-0.6-6.2-0.2-8.5c3.9-18.8,7.6-37.8,11.2-56.8c0.1-0.3,0.4-0.5,0.7-0.4c0.1,0,0.2,0.1,0.3,0.2l13.8,14.5
		c0.3,0.3,0.4,0.6,0.3,1c-0.8,6.2-2.4,19.4-4.8,39.6c-0.7,6.2,0.2,9.5,3.2,15.3c15.2,29.9,33.3,58.6,52.1,86.3
		c0.3,0.5,0.6,0.7,1,0.8c0.3,0.1,0.5-0.1,0.7-0.3c7.9-16,16.4-33.8,21-51c0.2-0.6,0.4-0.7,0.8-0.2c4.5,5.3,9,10.6,13.5,16
		c0.8,0.9,1.1,2.3,0.7,3.6c-6.4,21.5-11.8,43.2-16.1,65.2c-0.3,1.8-0.5,5.6,0,7.4c3.7,13.9,6.7,28,9,42.2c0.2,1.5,1.1,2.5,2,3.5
		c15,17.3,30.5,35.2,46.4,53.7c0.8,1,1.7,0.9,2.5-0.1l37.8-49c0.2-0.3,0.3-0.6,0.4-0.9l3.7-35.4c0-0.2,0.2-0.3,0.4-0.3
		c0.1,0,0.2,0,0.2,0.1c8.9,9.9,17.2,20.2,25.1,30.9c0.3,0.5,0.4,1.1,0,1.6c-13.4,20.2-26.8,40.5-40.2,60.9c-1.5,2.2-0.8,3.7,0,5.9
		c8.9,22.6,18.3,45,28.1,67c0.3,0.6,0.8,1.1,1.5,1.4c22.3,8.9,44.8,17.8,67.6,26.7c4.2,1.6,7.5,3.6,9.8,5.9
		C895.4,1101.8,913.8,1120.4,932.2,1139.1z"/>
	<path class="st1" d="M916.6,705.5l-3.8-32.6c0-0.3,0.2-0.6,0.5-0.6c0.1,0,0.1,0,0.2,0l33.2,6.1c0.2,0,0.4,0.2,0.5,0.5l3.6,23.5
		c0,0.2-0.1,0.5-0.3,0.6l-24.6,10.7c-0.2,0.1-0.4,0-0.6-0.1l-8.4-7.8C916.7,705.8,916.6,705.7,916.6,705.5z"/>
	<path class="st1" d="M695.4,693.7c0.1-0.8,0.1-1.8,0.1-2.7c0-0.4,0.2-0.6,0.5-0.8l28.1-12.9c0.6-0.3,1-0.1,1,0.6
		c-0.2,34.3,0.9,68.1,3.3,101.6c0.1,1.8,0.1,3.3,0,4.5c0,0.4-0.2,0.5-0.5,0.2c-13-14.2-23-26.1-29.9-35.5c-0.9-1.3-1.6-3.4-1.9-6.5
		C694.3,726.1,694.1,709.9,695.4,693.7z"/>
	<path class="st1" d="M262.5,715.7c-0.3-0.2-0.4-0.4-0.2-0.7c0.1-0.2,0.4-0.5,0.8-0.7c45.2-24.2,101.4-31.3,147.5-4.8
		c0.4,0.2,0.5,0.7,0.3,1.1c0,0.1-0.1,0.1-0.2,0.2c-8.2,6.9-17.3,12.1-27.6,15.9C342.5,741.7,300.2,735.8,262.5,715.7z"/>
	<path class="st1" d="M918,759.5c-8.9-5.2-33.5-18.5-35.7-28.8c-2.7-12.2-5.3-24.3-8-36.3c0-0.2,0.1-0.4,0.3-0.4
		c0.1,0,0.2,0,0.3,0.1c1.9,1.5,3.5,3.4,5.4,4.7c12.6,9.3,24.3,19.7,35.2,31.1c0.3,0.4,0.6,1,0.6,1.9c0.9,9.2,1.8,18.3,2.6,27.3
		c0,0.2-0.1,0.4-0.4,0.5C918.2,759.6,918.1,759.6,918,759.5z"/>
	<path class="st1" d="M744.3,740.8c-0.7-0.5-1.1-1.2-1.1-2l-1.9-39.2c0-0.5,0.2-0.6,0.6-0.4c11,4.5,21.7,9.7,32,15.5
		c0.3,0.2,0.5,0.4,0.5,0.8c2.2,14.9,1.8,29.7-1.4,44.5c0,0.2-0.2,0.3-0.4,0.3c0,0-0.1,0-0.1-0.1L744.3,740.8z"/>
	<path class="st1" d="M792.6,729.1c-0.3-0.1-0.4-0.3-0.4-0.6c0.2-5.8-0.2-11.5-1-17.2c0-0.4,0.1-0.7,0.4-0.9l17.7-11
		c0.4-0.2,0.9-0.2,1.2,0l35.4,20.9c0.2,0.1,0.3,0.5,0.2,0.7c0,0.1-0.1,0.1-0.1,0.1c-6.6,5.4-13.3,10.7-20.3,15.9
		c-2.2,1.7-3.6,1.9-6.4,1C810.4,735.1,801.5,732.2,792.6,729.1z"/>
	<path class="st1" d="M933.2,730.2l21-8.6c0.5-0.2,1,0,1.1,0.5c0,0.1,0,0.1,0.1,0.2l7.6,59.1c0.1,0.5-0.2,1-0.6,1.2l-19.1,12.1
		c-0.4,0.2-0.9,0.1-1.1-0.3c0-0.1-0.1-0.1-0.1-0.2c-6.7-20.2-9.1-42.2-9.5-63.3C932.7,730.6,932.8,730.3,933.2,730.2z"/>
	<path class="st1" d="M843.2,772.6c-0.2-0.1-0.4-0.3-0.5-0.5l-6.4-21.8c-0.1-0.4,0-0.7,0.3-0.9l22.6-16.6c0.3-0.2,0.6-0.2,0.9,0.1
		c5.2,6.5,15,18.1,14.6,27c-0.3,7.4-0.2,14.6,0.4,21.8c0.1,0.8-0.5,1.4-1.3,1.5c-0.2,0-0.4,0-0.5-0.1L843.2,772.6z"/>
	<path class="st1" d="M979.1,776.9l-5.1-36.4c0-0.2,0.1-0.4,0.3-0.4c0.1,0,0.2,0,0.3,0.1l21.4,23.8c0.1,0.1,0.1,0.2,0.1,0.3l-3,22.4
		c0,0.2-0.2,0.3-0.4,0.3c-0.1,0-0.1,0-0.2-0.1l-13.3-9.8C979.1,777.1,979.1,777,979.1,776.9z"/>
	<path class="st1" d="M1043,790.3c-0.7-0.1-0.9-0.4-0.6-1.1c10.2-21.4,33.6-36.6,55.9-42c11.2-2.7,22.7-3.5,34.4-2.2
		c0.3,0,0.4,0.2,0.2,0.5C1113.2,778.2,1081.3,793.7,1043,790.3z"/>
	<path class="st1" d="M820.6,757c0.2,0.1,0.3,0.2,0.4,0.4l5.9,22.3c0.1,0.6,0,1.2-0.5,1.6l-26.2,24.9c-0.3,0.3-0.8,0.3-1,0
		c-0.1-0.1-0.1-0.2-0.2-0.3c-3.7-11.2-7.1-22.4-10.5-33.7c-1.7-5.9,1.8-18,3.6-24c0.1-0.4,0.5-0.6,0.9-0.5c0,0,0,0,0,0L820.6,757z"
		/>
	<path class="st1" d="M345.8,795.5c-0.2-0.1-0.3-0.3-0.3-0.5c0-0.1,0.1-0.1,0.1-0.2c32.8-31.2,79.8-45.4,123.9-31.6
		c0.3,0.1,0.5,0.4,0.4,0.7c0,0.1-0.1,0.2-0.1,0.2C437.4,799.5,390.9,807.7,345.8,795.5z"/>
	<path class="st1" d="M769.6,779c3.3,2.7,4.7,4.6,5.9,9c6.2,21.6,12.7,43,16.8,65.2c0,0.2-0.1,0.4-0.3,0.5c-0.1,0-0.3,0-0.4-0.1
		c-13.5-14.7-26.8-29.7-39.7-45.2c-0.9-1-2.1-2.9-2.3-4.3c-2.6-14.2-4.7-28.4-6.3-42.7c0-0.4,0.1-0.5,0.4-0.3
		C752.2,766,760.8,771.9,769.6,779z"/>
	<path class="st1" d="M919.9,781.2c0.2,0.1,0.3,0.2,0.3,0.4l6.3,18.4c0.4,1,0.2,2.2-0.5,3.1l-17,23.3c-0.2,0.2-0.5,0.3-0.8,0.1
		c-0.1,0-0.1-0.1-0.1-0.1c-4.7-7.5-9.4-15-14.2-22.5c-1.3-2-2-4.4-2.1-7.2c-0.6-11.3-1.2-22.5-1.9-33.6c0-0.2,0.1-0.4,0.3-0.4
		c0.1,0,0.2,0,0.2,0.1L919.9,781.2z"/>
	<path class="st1" d="M849,829.8l-31.7-14c-0.5-0.2-0.8-0.9-0.6-1.4c0.1-0.1,0.1-0.2,0.2-0.3l23.9-23c0.6-0.6,1.4-0.7,2.2-0.4
		l30.8,11.9c0.5,0.2,0.8,0.8,0.6,1.3c0,0.1-0.1,0.2-0.2,0.3L852.5,829C851.7,830,850.2,830.4,849,829.8z"/>
	<path class="st1" d="M958.2,829.7l-5.9-19c-0.1-0.2,0-0.4,0.2-0.6l20.4-14.1c0.2-0.1,0.4-0.1,0.6,0l16.6,12.2
		c0.2,0.1,0.2,0.3,0.2,0.5l-4.4,32c0,0.3-0.3,0.5-0.6,0.4c0,0-0.1,0-0.1,0l-26.6-11.1C958.4,830,958.3,829.9,958.2,829.7z"/>
	<path class="st1" d="M1036,892.8c17.1-50.6,61.1-84.4,113.2-93.9c1-0.2,1.3,0.2,0.9,1.1c-19,47.4-60.4,87.5-112.5,94.7
		c-0.8,0.1-1.6-0.5-1.7-1.3C1035.9,893.2,1035.9,893,1036,892.8z"/>
	<path class="st1" d="M424.3,913.3c4.7-46,31-88,75.8-104.5c0.8-0.3,1.2,0,1.2,0.9c0.1,47.4-33.7,87.2-76.5,104
		c-0.2,0.1-0.4,0-0.5-0.2C424.3,913.4,424.3,913.4,424.3,913.3z"/>
	<path class="st1" d="M338.9,953.7c2.6-55.5,30.6-113.5,84.2-137.9c0.3-0.1,0.6,0,0.7,0.3c0,0.1,0.1,0.2,0.1,0.2
		c0.4,59.1-34.8,109-84.7,137.5C339,953.9,338.9,953.9,338.9,953.7C338.9,953.8,338.9,953.8,338.9,953.7z"/>
	<path class="st1" d="M935.3,819.1c0.1-0.1,0.2-0.1,0.3-0.1c0,0,0.1,0.1,0.1,0.1l6.5,14.7c0.1,0.3,0.2,0.7,0.1,1
		c-1.9,6.7-3.9,13.4-6,20c-0.8,2.7-1.4,3.8-4.1,5.2c-6.4,3.3-12.8,6.5-19.3,9.8c-0.2,0.1-0.4,0-0.5-0.2c0-0.1,0-0.1,0-0.2
		c1.1-7.7,2.3-15.5,3.4-23.4c0.2-1.4,1.2-3.2,3.1-5.5C924.2,833.9,929.7,826.7,935.3,819.1z"/>
	<path class="st1" d="M882.7,820.3c0.2-0.3,0.6-0.3,0.9,0c0,0,0.1,0.1,0.1,0.1c4.6,6.6,9.2,13.3,13.9,20.2c1.3,1.9,1.8,3.8,1.6,5.8
		c-1.6,15.6-2.7,31.6-5.8,47c-0.1,0.4-0.3,0.4-0.5,0.1c-8-8.9-16.2-17.5-24.6-25.9c-3.8-3.8-5.5-18.3-6-24c0-0.4,0.1-0.7,0.3-1
		L882.7,820.3z"/>
	<path class="st1" d="M843,845.7c0.8,0.3,1.3,1,1.5,1.8l4.2,18.1c0.1,0.3,0,0.7-0.2,1l-15.4,22.3c-0.3,0.5-0.9,0.6-1.4,0.2
		c0,0-0.1-0.1-0.1-0.1c-7.2-7.2-15-16.3-17.9-26.4c-3.2-11.1-6.3-22.1-9.3-33.2c-0.1-0.3,0-0.4,0.3-0.3L843,845.7z"/>
	<path class="st1" d="M973.7,895.3c-4.6-3.8-9.1-7.5-12-12.6c-3.6-6.3-6.9-13.2-9.8-20.8c-0.2-0.6-0.3-1.2-0.1-1.7
		c1.5-3.8,2.9-7.6,4.3-11.3c0.2-0.5,0.7-0.7,1.2-0.5c0,0,0,0,0,0c8.3,3.3,16.3,7.3,23.9,12c0.7,0.4,1.1,1.3,0.9,2.1l-7.8,32.6
		C974.3,895.5,974.1,895.6,973.7,895.3z"/>
	<path class="st1" d="M925.9,921.9L908.5,905c-0.2-0.2-0.4-0.5-0.3-0.9c0.5-7.7,3.7-13.4,10.4-17.2c6.8-3.9,13.6-7.8,20.2-11.7
		c0.3-0.2,0.7-0.1,0.9,0.2c0,0,0,0,0,0.1l9.5,20.5c0.3,0.6,0.2,1.4-0.3,1.9l-21.5,23.8C927,922.2,926.3,922.3,925.9,921.9
		C925.9,921.9,925.9,921.9,925.9,921.9z"/>
	<path class="st1" d="M859.2,883.5c10.2,8.4,20,19.4,28.5,29.5c0.6,0.7,2,1.5,1.7,2.8c-2.3,11.4-4.7,22.8-7.2,34.2
		c0,0.2-0.3,0.4-0.5,0.3c-0.1,0-0.2-0.1-0.2-0.1c-11.8-14.4-23.2-29.1-34.4-44.1c-1.1-1.5-1.4-2.8-0.4-4.6c3.5-6,7.1-11.9,10.5-17.7
		C857.9,883,858.5,882.9,859.2,883.5z"/>
	<path class="st1" d="M606.3,935.3c-42.2,5.8-81.2-13.2-103.5-49.5c-0.1-0.1,0-0.3,0.1-0.4c0,0,0.1,0,0.1,0
		c40.5-0.6,80.7,13.5,103.8,48.6C607.4,934.8,607.2,935.2,606.3,935.3z"/>
	<path class="st1" d="M1028.8,948.5c-0.5,0-0.9-0.5-0.9-1.1c0-0.1,0-0.3,0.1-0.4c2.2-4.2,5.1-8.2,8.7-12
		c30.9-32.8,75.5-46.6,120.3-41.6c0.3,0,0.4,0.2,0.2,0.5c-0.9,1.6-2,3.1-3.3,4.6C1121.6,935.9,1079.9,952.6,1028.8,948.5z"/>
	<path class="st1" d="M962.6,909.6l5.9,6.9c0.2,0.3,0.3,0.7,0.2,1l-14.7,47.1c-0.2,0.5-0.6,1-1.2,1.1c-0.1,0-0.2-0.1-0.4-0.5
		c-4.7-10.1-9.3-20.1-13.8-30.1c-0.2-0.4-0.1-0.8,0.2-1.1l22.7-24.4C961.9,909.3,962.3,909.3,962.6,909.6
		C962.6,909.5,962.6,909.6,962.6,909.6z"/>
	<path class="st1" d="M905,926.7c6.9,5.3,16.7,12.3,20.3,20.1c6.1,13.2,12.2,26.1,18.2,38.9c0.4,0.8,0.4,1.6,0.1,2.4l-15.8,47.4
		c0,0.1-0.1,0.1-0.2,0.1c0,0-0.1,0-0.1-0.1c-11.4-22.4-21.6-45.3-30.8-68.7c-0.5-1.3-0.6-2.8-0.3-4.5c2.4-11.8,4.9-23.6,7.6-35.3
		c0.1-0.3,0.4-0.5,0.7-0.5C904.9,926.6,905,926.6,905,926.7z"/>
	<path class="st1" d="M512.8,961.1c-0.8-0.7-0.7-1.3,0.3-1.6c38-13.4,78.7-6.5,109.5,19.2c0.2,0.2,0.3,0.5,0.1,0.7
		c-0.1,0.1-0.1,0.1-0.2,0.1C583.8,996.6,544.4,987.9,512.8,961.1z"/>
	<path class="st1" d="M974,1042.3c-0.3-0.1-0.5-0.4-0.5-0.7c0-0.1,0.1-0.2,0.1-0.3c37.4-42.3,99-54.8,152.5-44.4
		c0.3,0.1,0.5,0.4,0.5,0.7c0,0.1-0.1,0.2-0.2,0.3C1085.6,1038.4,1030.4,1053.2,974,1042.3z"/>
	<path class="st1" d="M601.3,1050.9c-0.3-0.1-0.5-0.3-0.4-0.6c0-0.1,0.1-0.2,0.1-0.2c22.6-27.9,55-43,91.3-38.5
		c0.6,0.1,1.1,0.6,1,1.3c0,0.1,0,0.2-0.1,0.3c-9,20.7-31.1,34.1-52.7,38.1C627.5,1053.8,614.4,1053.6,601.3,1050.9z"/>
</g>
</svg>
